<svg width="710" height="710" viewBox="0 0 710 710" fill="none" xmlns="http://www.w3.org/2000/svg">
<rect width="710" height="710" fill="#D9D9D9"/>
<path d="M179.561 492.498V418.658H193.053V483.2H210.92V492.498H179.561ZM217.474 492.498V439.807H229.872V492.498H217.474ZM217.474 431.421V421.12H229.872V431.421H217.474ZM261.145 509.819V488.578C259.747 490.037 258.258 491.192 256.678 492.042C255.098 492.893 253.396 493.319 251.573 493.319C247.379 493.319 244.219 491.83 242.092 488.852C239.965 485.874 238.901 481.103 238.901 474.54V458.404C238.901 454.758 239.296 451.476 240.086 448.559C240.877 445.642 242.183 443.332 244.006 441.631C245.89 439.868 248.382 438.987 251.482 438.987C253.366 438.987 255.098 439.382 256.678 440.172C258.319 440.962 259.808 441.995 261.145 443.272V439.807H273.542V509.819H261.145ZM256.222 484.75C256.89 484.75 257.65 484.598 258.501 484.294C259.412 483.99 260.294 483.565 261.145 483.018V449.288C260.415 448.741 259.625 448.316 258.774 448.012C257.924 447.647 257.042 447.465 256.131 447.465C254.307 447.465 253.031 448.285 252.302 449.926C251.633 451.506 251.299 453.451 251.299 455.761V475.451C251.299 477.214 251.421 478.794 251.664 480.192C251.968 481.589 252.454 482.714 253.122 483.565C253.852 484.355 254.885 484.75 256.222 484.75ZM291.376 493.319C289.31 493.319 287.608 492.802 286.271 491.769C284.934 490.675 283.962 489.247 283.354 487.484C282.747 485.661 282.443 483.747 282.443 481.741V439.807H294.84V479.462C294.84 481.042 295.084 482.288 295.57 483.2C296.117 484.051 297.089 484.476 298.487 484.476C299.399 484.476 300.31 484.233 301.222 483.747C302.194 483.261 303.136 482.683 304.048 482.015V439.807H316.446V492.498H304.048V487.484C302.285 489.186 300.341 490.584 298.213 491.678C296.086 492.772 293.807 493.319 291.376 493.319ZM326.351 492.498V439.807H338.749V492.498H326.351ZM326.351 431.421V421.12H338.749V431.421H326.351Z" fill="#8F00FF"/>
<path d="M369.292 493.501C363.883 493.501 359.629 492.438 356.529 490.31C353.49 488.183 351.363 485.297 350.148 481.65C348.932 477.943 348.325 473.689 348.325 468.888V442.542C348.325 437.498 348.932 433.122 350.148 429.415C351.363 425.708 353.49 422.852 356.529 420.846C359.629 418.841 363.883 417.838 369.292 417.838C374.397 417.838 378.377 418.719 381.234 420.481C384.151 422.183 386.217 424.644 387.433 427.865C388.648 431.086 389.256 434.824 389.256 439.078V445.277H376.311V438.896C376.311 436.83 376.189 434.946 375.946 433.244C375.764 431.542 375.187 430.205 374.214 429.233C373.303 428.2 371.692 427.683 369.383 427.683C367.073 427.683 365.372 428.23 364.278 429.324C363.245 430.357 362.576 431.785 362.272 433.609C361.968 435.371 361.816 437.377 361.816 439.625V471.714C361.816 474.388 362.029 476.606 362.455 478.368C362.88 480.07 363.64 481.377 364.734 482.288C365.888 483.139 367.438 483.565 369.383 483.565C371.631 483.565 373.212 483.048 374.123 482.015C375.096 480.921 375.703 479.493 375.946 477.73C376.189 475.968 376.311 473.993 376.311 471.805V465.15H389.256V471.076C389.256 475.451 388.678 479.341 387.524 482.744C386.369 486.087 384.333 488.73 381.416 490.675C378.56 492.559 374.518 493.501 369.292 493.501ZM398.193 506.811V497.877C400.32 497.877 402.052 497.755 403.389 497.512C404.726 497.269 405.699 496.844 406.306 496.236C406.914 495.628 407.218 494.777 407.218 493.683C407.218 492.893 407.005 491.647 406.58 489.946C406.215 488.244 405.79 486.391 405.304 484.385L393.726 439.807H405.759L412.596 474.54L418.522 439.807H430.464L418.157 494.595C417.489 497.694 416.364 500.125 414.784 501.888C413.204 503.65 411.229 504.896 408.859 505.625C406.489 506.415 403.724 506.811 400.563 506.811H398.193ZM452.06 493.319C447.988 493.319 444.706 492.559 442.214 491.04C439.783 489.46 437.991 487.241 436.836 484.385C435.742 481.468 435.195 478.034 435.195 474.084V458.222C435.195 454.15 435.742 450.686 436.836 447.83C437.991 444.973 439.814 442.785 442.306 441.266C444.797 439.747 448.049 438.987 452.06 438.987C455.828 438.987 458.897 439.595 461.267 440.81C463.698 441.965 465.46 443.758 466.554 446.189C467.648 448.559 468.195 451.567 468.195 455.214V459.589H456.527V454.94C456.527 453.117 456.375 451.689 456.071 450.656C455.828 449.562 455.372 448.802 454.703 448.377C454.035 447.89 453.154 447.647 452.06 447.647C450.966 447.647 450.085 447.951 449.416 448.559C448.748 449.106 448.261 450.017 447.958 451.294C447.714 452.57 447.593 454.332 447.593 456.581V475.907C447.593 479.31 447.958 481.62 448.687 482.835C449.416 483.99 450.571 484.567 452.151 484.567C453.366 484.567 454.278 484.294 454.886 483.747C455.554 483.2 455.98 482.41 456.162 481.377C456.405 480.283 456.527 478.976 456.527 477.457V471.805H468.195V476.819C468.195 480.344 467.618 483.352 466.463 485.844C465.369 488.335 463.607 490.219 461.176 491.496C458.806 492.711 455.767 493.319 452.06 493.319ZM477.168 492.498V418.658H489.475V492.498H477.168ZM515.269 493.319C511.319 493.319 508.098 492.589 505.606 491.131C503.114 489.612 501.261 487.424 500.045 484.567C498.89 481.65 498.313 478.156 498.313 474.084V458.222C498.313 454.029 498.89 450.504 500.045 447.647C501.261 444.791 503.114 442.633 505.606 441.175C508.158 439.716 511.379 438.987 515.269 438.987C519.462 438.987 522.714 439.777 525.023 441.357C527.393 442.937 529.065 445.247 530.037 448.285C531.07 451.263 531.587 454.91 531.587 459.225V466.7H510.62V477.092C510.62 478.794 510.772 480.192 511.076 481.286C511.44 482.379 511.987 483.17 512.716 483.656C513.446 484.142 514.327 484.385 515.36 484.385C516.454 484.385 517.335 484.142 518.004 483.656C518.672 483.109 519.158 482.349 519.462 481.377C519.766 480.344 519.918 479.067 519.918 477.548V473.172H531.496V476.728C531.496 482.076 530.158 486.178 527.484 489.034C524.81 491.891 520.739 493.319 515.269 493.319ZM510.62 460.592H519.918V455.578C519.918 453.755 519.766 452.296 519.462 451.203C519.158 450.048 518.672 449.227 518.004 448.741C517.335 448.194 516.393 447.921 515.178 447.921C514.084 447.921 513.203 448.194 512.534 448.741C511.866 449.288 511.379 450.2 511.076 451.476C510.772 452.752 510.62 454.575 510.62 456.946V460.592Z" fill="#502F6A"/>
<path d="M352.551 338.762L363.243 376.352L286.038 373.988C269.831 373.988 247.323 362.734 255.426 347.991L274.333 333.698L352.551 338.762Z" fill="#502F6A"/>
<path d="M297.292 235.109L332.293 295.77L294.028 276.638L280.86 341.013C278.835 344.389 279.735 368.699 278.384 373.988C271.857 369.374 287.501 379.053 260.152 365.885C246.535 358.12 245.409 349.904 243.158 341.126C241.695 335.611 239.107 327.62 241.47 308.375C242.145 299.484 243.496 290.931 244.846 288.568L255.426 251.878L227.177 235.672L297.292 235.109Z" fill="#8F00FF"/>
<path d="M400.944 336.736C401.395 347.765 405.334 358.119 411.861 365.547C418.389 372.975 426.942 376.802 435.608 376.239C444.274 376.802 452.827 372.975 459.355 365.547C465.882 358.119 469.709 347.765 470.272 336.736C470.272 306.012 435.608 262.119 435.608 262.119C435.608 262.119 400.944 306.012 400.944 336.736Z" fill="#8F00FF"/>
<path d="M422.216 268.985L369.433 257.28L389.015 246.026L364.706 203.934C363.355 201.571 358.066 192.792 355.252 189.979L384.851 154.978C390.028 154.978 409.273 199.77 411.074 203.034L423.004 225.88L442.586 214.626L422.216 268.985Z" fill="#502F6A"/>
<path d="M329.254 228.581L289.076 210.349L338.258 154.753C345.461 146.087 381.475 145.074 385.751 155.766L386.201 160.605L329.254 228.581Z" fill="#8F00FF"/>
<path d="M295.9 565.43C293.582 565.43 291.759 564.974 290.431 564.062C289.128 563.151 288.217 561.914 287.696 560.351C287.175 558.762 286.914 556.939 286.914 554.881V543.59C286.914 541.428 287.175 539.553 287.696 537.964C288.217 536.376 289.128 535.151 290.431 534.292C291.759 533.432 293.582 533.003 295.9 533.003C298.088 533.003 299.794 533.38 301.018 534.136C302.268 534.865 303.154 535.92 303.675 537.3C304.196 538.681 304.456 540.282 304.456 542.106V544.762H298.909V542.028C298.909 541.142 298.856 540.335 298.752 539.605C298.674 538.876 298.427 538.303 298.01 537.886C297.619 537.443 296.929 537.222 295.939 537.222C294.95 537.222 294.22 537.456 293.751 537.925C293.309 538.368 293.022 538.98 292.892 539.762C292.762 540.517 292.697 541.376 292.697 542.34V556.092C292.697 557.238 292.788 558.189 292.97 558.944C293.152 559.674 293.478 560.234 293.947 560.624C294.442 560.989 295.106 561.171 295.939 561.171C296.903 561.171 297.58 560.95 297.971 560.507C298.388 560.038 298.648 559.426 298.752 558.671C298.856 557.916 298.909 557.069 298.909 556.131V553.279H304.456V555.819C304.456 557.694 304.209 559.361 303.714 560.82C303.219 562.252 302.347 563.385 301.096 564.219C299.872 565.026 298.14 565.43 295.9 565.43ZM308.482 565V533.354H314.264V561.015H321.922V565H308.482ZM325.082 565V533.354H330.786V565H325.082ZM335.685 565V533.354H348.968V537.417H341.467V546.52H347.367V550.545H341.467V561.015H349.047V565H335.685ZM352.396 565V533.354H356.42L364.117 551.404V533.354H368.883V565H365.054L357.319 546.091V565H352.396ZM376.85 565V537.613H371.81V533.354H387.594V537.613H382.632V565H376.85ZM390.473 565V533.354H403.756V537.417H396.255V546.52H402.155V550.545H396.255V561.015H403.835V565H390.473ZM415.154 565.43C413.253 565.43 411.664 565.065 410.388 564.336C409.111 563.58 408.148 562.487 407.497 561.054C406.845 559.622 406.481 557.863 406.403 555.78L411.364 554.803C411.417 556.027 411.56 557.108 411.794 558.046C412.055 558.983 412.432 559.713 412.927 560.234C413.448 560.728 414.125 560.976 414.959 560.976C415.896 560.976 416.561 560.702 416.951 560.155C417.342 559.582 417.537 558.866 417.537 558.007C417.537 556.626 417.225 555.493 416.6 554.608C415.975 553.722 415.141 552.837 414.099 551.951L410.114 548.435C408.994 547.471 408.096 546.403 407.418 545.231C406.767 544.033 406.442 542.561 406.442 540.816C406.442 538.316 407.171 536.389 408.63 535.034C410.088 533.68 412.081 533.003 414.607 533.003C416.092 533.003 417.329 533.237 418.319 533.706C419.308 534.149 420.09 534.774 420.663 535.581C421.262 536.389 421.705 537.313 421.991 538.355C422.278 539.371 422.46 540.452 422.538 541.598L417.615 542.457C417.563 541.468 417.446 540.582 417.264 539.801C417.108 539.019 416.808 538.407 416.365 537.964C415.949 537.522 415.323 537.3 414.49 537.3C413.63 537.3 412.966 537.587 412.497 538.16C412.055 538.707 411.833 539.397 411.833 540.23C411.833 541.298 412.055 542.184 412.497 542.887C412.94 543.564 413.578 544.267 414.412 544.997L418.358 548.474C419.66 549.568 420.767 550.857 421.679 552.342C422.616 553.8 423.085 555.571 423.085 557.655C423.085 559.166 422.747 560.507 422.069 561.679C421.418 562.851 420.494 563.776 419.295 564.453C418.123 565.104 416.743 565.43 415.154 565.43Z" fill="#8F00FF"/>
</svg>
