<svg width="14" height="8" viewBox="0 0 14 8" fill="none" xmlns="http://www.w3.org/2000/svg">
<path d="M0.525115 1.0623C0.69632 0.896011 0.928493 0.802594 1.17058 0.802594C1.41266 0.802594 1.64483 0.896011 1.81604 1.0623L6.64833 5.75733L11.4806 1.0623C11.5648 0.977583 11.6656 0.910007 11.777 0.863519C11.8884 0.817031 12.0082 0.792561 12.1294 0.791537C12.2506 0.790514 12.3708 0.812958 12.483 0.857558C12.5952 0.902159 12.6971 0.968023 12.7829 1.05131C12.8686 1.13459 12.9364 1.23363 12.9823 1.34264C13.0282 1.45166 13.0513 1.56846 13.0502 1.68624C13.0492 1.80402 13.024 1.92041 12.9761 2.02863C12.9283 2.13685 12.8587 2.23473 12.7715 2.31656L7.29379 7.63871C7.12259 7.80501 6.89042 7.89842 6.64833 7.89842C6.40625 7.89842 6.17407 7.80501 6.00287 7.63871L0.525115 2.31656C0.353961 2.15022 0.257812 1.92464 0.257812 1.68943C0.257812 1.45422 0.353961 1.22864 0.525115 1.0623Z" fill="#0D0D0D"/>
</svg>
