<svg width="14" height="14" viewBox="0 0 14 14" fill="none" xmlns="http://www.w3.org/2000/svg">
<path d="M4.05117 4.05534C4.11959 3.98687 4.21238 3.94841 4.30913 3.94841C4.40588 3.94841 4.49867 3.98687 4.5671 4.05534L6.49837 5.98827L8.42964 4.05534C8.4633 4.02046 8.50356 3.99264 8.54808 3.9735C8.59259 3.95436 8.64047 3.94428 8.68892 3.94386C8.73737 3.94344 8.78541 3.95268 8.83026 3.97104C8.8751 3.9894 8.91584 4.01652 8.95009 4.05081C8.98435 4.0851 9.01145 4.12587 9.02979 4.17075C9.04814 4.21563 9.05737 4.26372 9.05695 4.31221C9.05653 4.3607 9.04646 4.40862 9.02734 4.45317C9.00822 4.49773 8.98042 4.53802 8.94557 4.57171L7.0143 6.50465L8.94557 8.43759C9.01204 8.50646 9.04881 8.59871 9.04798 8.69446C9.04715 8.79021 9.00878 8.88181 8.94113 8.94951C8.87348 9.01722 8.78196 9.05563 8.68629 9.05646C8.59063 9.05729 8.49846 9.02048 8.42964 8.95396L6.49837 7.02102L4.5671 8.95396C4.49828 9.02048 4.40611 9.05729 4.31044 9.05646C4.21478 9.05563 4.12326 9.01722 4.05561 8.94951C3.98796 8.88181 3.94959 8.79021 3.94876 8.69446C3.94792 8.59871 3.9847 8.50646 4.05117 8.43759L5.98244 6.50465L4.05117 4.57171C3.98276 4.50323 3.94434 4.41036 3.94434 4.31352C3.94434 4.21669 3.98276 4.12382 4.05117 4.05534Z" fill="white"/>
<circle cx="6.57338" cy="6.57338" r="6.20819" stroke="white" stroke-width="0.730375"/>
</svg>
