<svg width="12" height="12" viewBox="0 0 12 12" fill="none" xmlns="http://www.w3.org/2000/svg">
<path d="M8.85362 0.195006C8.97852 0.0701438 9.1479 0 9.32451 0C9.50112 0 9.6705 0.0701438 9.7954 0.195006L11.7935 2.19312C11.9184 2.31802 11.9885 2.48739 11.9885 2.664C11.9885 2.84061 11.9184 3.00999 11.7935 3.13489L5.79918 9.12922C5.6743 9.25413 5.50492 9.32433 5.32829 9.32437H3.33018C3.15354 9.32437 2.98413 9.25419 2.85922 9.12929C2.73432 9.00438 2.66414 8.83497 2.66414 8.65833V6.66022C2.66418 6.48359 2.73438 6.31421 2.85929 6.18933L8.85362 0.195006ZM3.99622 6.93596V7.99229H5.05255L10.3808 2.664L9.32451 1.60767L3.99622 6.93596ZM0 2.664C0 2.31072 0.140343 1.9719 0.390155 1.72209C0.639967 1.47227 0.978785 1.33193 1.33207 1.33193H4.66225C4.8389 1.33193 5.00831 1.4021 5.13321 1.52701C5.25812 1.65191 5.32829 1.82132 5.32829 1.99797C5.32829 2.17461 5.25812 2.34402 5.13321 2.46892C5.00831 2.59383 4.8389 2.664 4.66225 2.664H1.33207V10.6564H9.32451V7.32626C9.32451 7.14961 9.39468 6.9802 9.51958 6.8553C9.64449 6.73039 9.8139 6.66022 9.99054 6.66022C10.1672 6.66022 10.3366 6.73039 10.4615 6.8553C10.5864 6.9802 10.6566 7.14961 10.6566 7.32626V10.6564C10.6566 11.0097 10.5162 11.3485 10.2664 11.5984C10.0166 11.8482 9.6778 11.9885 9.32451 11.9885H1.33207C0.978785 11.9885 0.639967 11.8482 0.390155 11.5984C0.140343 11.3485 0 11.0097 0 10.6564V2.664Z" fill="#0D0D0D"/>
</svg>
