<svg width="15" height="17" viewBox="0 0 15 17" fill="none" xmlns="http://www.w3.org/2000/svg">
<path d="M7.29969 6.82515C7.38492 6.74005 7.50051 6.69224 7.62104 6.69224C7.74156 6.69224 7.85715 6.74005 7.94238 6.82515L9.76048 8.64101C9.84327 8.72663 9.88909 8.8413 9.88805 8.96033C9.88702 9.07936 9.83921 9.19322 9.75494 9.27739C9.67067 9.36156 9.55667 9.4093 9.43749 9.41033C9.31832 9.41137 9.20351 9.36561 9.11778 9.28292L8.07556 8.24198V13.5016C8.07556 13.622 8.02767 13.7375 7.94243 13.8226C7.85719 13.9077 7.74158 13.9556 7.62104 13.9556C7.50049 13.9556 7.38488 13.9077 7.29964 13.8226C7.2144 13.7375 7.16651 13.622 7.16651 13.5016V8.24198L6.12429 9.28292C6.03857 9.36561 5.92375 9.41137 5.80458 9.41033C5.6854 9.4093 5.5714 9.36156 5.48713 9.27739C5.40286 9.19322 5.35506 9.07936 5.35402 8.96033C5.35299 8.8413 5.3988 8.72663 5.48159 8.64101L7.29969 6.82515ZM11.7117 12.4057V7.1461C11.7117 7.0257 11.7596 6.91024 11.8449 6.8251C11.9301 6.73997 12.0457 6.69214 12.1663 6.69214C12.2868 6.69214 12.4024 6.73997 12.4877 6.8251C12.5729 6.91024 12.6208 7.0257 12.6208 7.1461V12.4057L13.663 11.3648C13.7487 11.2821 13.8636 11.2363 13.9827 11.2374C14.1019 11.2384 14.2159 11.2862 14.3002 11.3703C14.3844 11.4545 14.4323 11.5684 14.4333 11.6874C14.4343 11.8064 14.3885 11.9211 14.3057 12.0067L12.4876 13.8226C12.4024 13.9077 12.2868 13.9555 12.1663 13.9555C12.0457 13.9555 11.9302 13.9077 11.8449 13.8226L10.0268 12.0067C9.94403 11.9211 9.89822 11.8064 9.89926 11.6874C9.90029 11.5684 9.94809 11.4545 10.0324 11.3703C10.1166 11.2862 10.2306 11.2384 10.3498 11.2374C10.469 11.2363 10.5838 11.2821 10.6695 11.3648L11.7117 12.4057Z" fill="white"/>
<path fill-rule="evenodd" clip-rule="evenodd" d="M6.35763 0.669224L6.84008 0.205437C6.7139 0.0741811 6.53969 0 6.35763 0C6.17556 0 6.00135 0.0741811 5.87517 0.205437L6.35763 0.669224ZM10.8303 5.39811C10.4828 4.82453 10.1136 4.27231 9.74697 3.75749C9.02085 2.73778 8.29619 1.85217 7.75362 1.22192C7.48201 0.906416 7.25523 0.653971 7.09565 0.47967C7.01584 0.392498 6.95279 0.32481 6.90927 0.27849L6.85899 0.225251L6.84549 0.211079L6.84175 0.207181L6.84066 0.206038L6.8403 0.20567C6.84018 0.205542 6.84008 0.205437 6.35763 0.669224C5.87517 0.205437 5.87507 0.205542 5.87495 0.20567L5.87459 0.206038L5.8735 0.207181L5.86977 0.211079L5.85626 0.225251L5.80598 0.27849C5.76247 0.32481 5.69941 0.392498 5.6196 0.47967C5.46002 0.653971 5.23324 0.906416 4.96164 1.22192C4.41907 1.85217 3.69441 2.73778 2.96829 3.75749C2.24357 4.77525 1.50836 5.93915 0.952124 7.12534C0.39991 8.30295 0 9.55268 0 10.7287C0 10.7406 0.000316381 10.7525 0.000948727 10.7644C0.0893177 12.4222 0.804976 13.982 1.99996 15.1008C3.18734 16.2124 4.75224 16.7981 6.35763 16.7244C7.33037 16.7691 8.28824 16.5716 9.15628 16.1618C8.42718 16.0299 7.74858 15.753 7.15144 15.3619C6.9008 15.3909 6.64697 15.3992 6.39226 15.386C6.36919 15.3849 6.34607 15.3849 6.32299 15.386C5.07609 15.4507 3.85054 14.9998 2.91472 14.1237C1.98222 13.2507 1.41309 12.0253 1.33849 10.7111C1.34254 9.82003 1.65297 8.78328 2.16395 7.6936C2.67429 6.60531 3.36118 5.51322 4.05856 4.53386C4.75454 3.55647 5.45198 2.70384 5.97599 2.09515C6.11718 1.93114 6.24555 1.78511 6.35763 1.65941C6.4697 1.78511 6.59807 1.93114 6.73926 2.09515C7.26327 2.70384 7.96071 3.55647 8.65669 4.53386C8.86142 4.82137 9.06525 5.1186 9.26397 5.42259C9.54669 5.37732 9.83667 5.35379 10.1321 5.35379C10.3687 5.35379 10.6017 5.36887 10.8303 5.39811Z" fill="white"/>
</svg>
