<svg width="96" height="109" viewBox="0 0 96 109" fill="none" xmlns="http://www.w3.org/2000/svg">
<path d="M1.464 91V71.56H5.016V88.552H9.72V91H1.464ZM11.4456 91V77.128H14.7096V91H11.4456ZM11.4456 74.92V72.208H14.7096V74.92H11.4456ZM22.9427 95.56V89.968C22.5747 90.352 22.1827 90.656 21.7667 90.88C21.3507 91.104 20.9027 91.216 20.4227 91.216C19.3187 91.216 18.4867 90.824 17.9267 90.04C17.3667 89.256 17.0867 88 17.0867 86.272V82.024C17.0867 81.064 17.1907 80.2 17.3987 79.432C17.6067 78.664 17.9507 78.056 18.4307 77.608C18.9267 77.144 19.5827 76.912 20.3987 76.912C20.8947 76.912 21.3507 77.016 21.7667 77.224C22.1987 77.432 22.5907 77.704 22.9427 78.04V77.128H26.2067V95.56H22.9427ZM21.6467 88.96C21.8227 88.96 22.0227 88.92 22.2467 88.84C22.4867 88.76 22.7187 88.648 22.9427 88.504V79.624C22.7507 79.48 22.5427 79.368 22.3187 79.288C22.0947 79.192 21.8627 79.144 21.6227 79.144C21.1427 79.144 20.8067 79.36 20.6147 79.792C20.4387 80.208 20.3507 80.72 20.3507 81.328V86.512C20.3507 86.976 20.3827 87.392 20.4467 87.76C20.5267 88.128 20.6547 88.424 20.8307 88.648C21.0227 88.856 21.2947 88.96 21.6467 88.96ZM30.9019 91.216C30.3579 91.216 29.9099 91.08 29.5579 90.808C29.2059 90.52 28.9499 90.144 28.7899 89.68C28.6299 89.2 28.5499 88.696 28.5499 88.168V77.128H31.8139V87.568C31.8139 87.984 31.8779 88.312 32.0059 88.552C32.1499 88.776 32.4059 88.888 32.7739 88.888C33.0139 88.888 33.2539 88.824 33.4939 88.696C33.7499 88.568 33.9979 88.416 34.2379 88.24V77.128H37.5019V91H34.2379V89.68C33.7739 90.128 33.2619 90.496 32.7019 90.784C32.1419 91.072 31.5419 91.216 30.9019 91.216ZM40.1096 91V77.128H43.3736V91H40.1096ZM40.1096 74.92V72.208H43.3736V74.92H40.1096Z" fill="#8F00FF"/>
<path d="M51.4148 91.264C49.9908 91.264 48.8708 90.984 48.0548 90.424C47.2548 89.864 46.6948 89.104 46.3748 88.144C46.0548 87.168 45.8948 86.048 45.8948 84.784V77.848C45.8948 76.52 46.0548 75.368 46.3748 74.392C46.6948 73.416 47.2548 72.664 48.0548 72.136C48.8708 71.608 49.9908 71.344 51.4148 71.344C52.7588 71.344 53.8068 71.576 54.5588 72.04C55.3268 72.488 55.8708 73.136 56.1908 73.984C56.5108 74.832 56.6708 75.816 56.6708 76.936V78.568H53.2628V76.888C53.2628 76.344 53.2308 75.848 53.1668 75.4C53.1188 74.952 52.9668 74.6 52.7108 74.344C52.4708 74.072 52.0468 73.936 51.4388 73.936C50.8308 73.936 50.3828 74.08 50.0948 74.368C49.8228 74.64 49.6468 75.016 49.5668 75.496C49.4868 75.96 49.4468 76.488 49.4468 77.08V85.528C49.4468 86.232 49.5028 86.816 49.6148 87.28C49.7268 87.728 49.9268 88.072 50.2148 88.312C50.5188 88.536 50.9268 88.648 51.4388 88.648C52.0308 88.648 52.4468 88.512 52.6868 88.24C52.9428 87.952 53.1028 87.576 53.1668 87.112C53.2308 86.648 53.2628 86.128 53.2628 85.552V83.8H56.6708V85.36C56.6708 86.512 56.5188 87.536 56.2148 88.432C55.9108 89.312 55.3748 90.008 54.6068 90.52C53.8548 91.016 52.7908 91.264 51.4148 91.264ZM59.0237 94.768V92.416C59.5837 92.416 60.0397 92.384 60.3917 92.32C60.7437 92.256 60.9997 92.144 61.1597 91.984C61.3197 91.824 61.3997 91.6 61.3997 91.312C61.3997 91.104 61.3437 90.776 61.2317 90.328C61.1357 89.88 61.0237 89.392 60.8957 88.864L57.8477 77.128H61.0157L62.8157 86.272L64.3757 77.128H67.5197L64.2797 91.552C64.1037 92.368 63.8077 93.008 63.3917 93.472C62.9757 93.936 62.4557 94.264 61.8317 94.456C61.2077 94.664 60.4797 94.768 59.6477 94.768H59.0237ZM73.2053 91.216C72.1333 91.216 71.2693 91.016 70.6133 90.616C69.9733 90.2 69.5013 89.616 69.1973 88.864C68.9093 88.096 68.7653 87.192 68.7653 86.152V81.976C68.7653 80.904 68.9093 79.992 69.1973 79.24C69.5013 78.488 69.9813 77.912 70.6373 77.512C71.2933 77.112 72.1493 76.912 73.2053 76.912C74.1973 76.912 75.0053 77.072 75.6293 77.392C76.2693 77.696 76.7333 78.168 77.0213 78.808C77.3093 79.432 77.4533 80.224 77.4533 81.184V82.336H74.3813V81.112C74.3813 80.632 74.3413 80.256 74.2613 79.984C74.1973 79.696 74.0773 79.496 73.9013 79.384C73.7253 79.256 73.4933 79.192 73.2053 79.192C72.9173 79.192 72.6853 79.272 72.5093 79.432C72.3333 79.576 72.2053 79.816 72.1253 80.152C72.0613 80.488 72.0293 80.952 72.0293 81.544V86.632C72.0293 87.528 72.1253 88.136 72.3173 88.456C72.5093 88.76 72.8133 88.912 73.2293 88.912C73.5493 88.912 73.7893 88.84 73.9492 88.696C74.1253 88.552 74.2373 88.344 74.2853 88.072C74.3493 87.784 74.3813 87.44 74.3813 87.04V85.552H77.4533V86.872C77.4533 87.8 77.3013 88.592 76.9973 89.248C76.7093 89.904 76.2453 90.4 75.6053 90.736C74.9813 91.056 74.1813 91.216 73.2053 91.216ZM79.8156 91V71.56H83.0556V91H79.8156ZM89.8464 91.216C88.8064 91.216 87.9584 91.024 87.3024 90.64C86.6464 90.24 86.1584 89.664 85.8384 88.912C85.5344 88.144 85.3824 87.224 85.3824 86.152V81.976C85.3824 80.872 85.5344 79.944 85.8384 79.192C86.1584 78.44 86.6464 77.872 87.3024 77.488C87.9744 77.104 88.8224 76.912 89.8464 76.912C90.9504 76.912 91.8064 77.12 92.4144 77.536C93.0384 77.952 93.4784 78.56 93.7344 79.36C94.0064 80.144 94.1424 81.104 94.1424 82.24V84.208H88.6224V86.944C88.6224 87.392 88.6624 87.76 88.7424 88.048C88.8384 88.336 88.9824 88.544 89.1744 88.672C89.3664 88.8 89.5984 88.864 89.8704 88.864C90.1584 88.864 90.3904 88.8 90.5664 88.672C90.7424 88.528 90.8704 88.328 90.9504 88.072C91.0304 87.8 91.0704 87.464 91.0704 87.064V85.912H94.1184V86.848C94.1184 88.256 93.7664 89.336 93.0624 90.088C92.3584 90.84 91.2864 91.216 89.8464 91.216ZM88.6224 82.6H91.0704V81.28C91.0704 80.8 91.0304 80.416 90.9504 80.128C90.8704 79.824 90.7424 79.608 90.5664 79.48C90.3904 79.336 90.1424 79.264 89.8224 79.264C89.5344 79.264 89.3024 79.336 89.1264 79.48C88.9504 79.624 88.8224 79.864 88.7424 80.2C88.6624 80.536 88.6224 81.016 88.6224 81.64V82.6Z" fill="#502F6A"/>
<path d="M47.0075 50.2222L49.8223 60.1185L29.4963 59.4963C25.2297 59.4963 19.3037 56.5334 21.4371 52.6519L26.4149 48.8889L47.0075 50.2222Z" fill="#502F6A"/>
<path d="M32.4593 22.9333L41.6741 38.9037L31.6 33.8667L28.1333 50.8148C27.6 51.7037 27.837 58.1037 27.4815 59.4963C25.763 58.2815 29.8815 60.8296 22.6815 57.363C19.0963 55.3185 18.8 53.1556 18.2074 50.8445C17.8222 49.3926 17.1407 47.2889 17.763 42.2222C17.9407 39.8815 18.2963 37.6296 18.6519 37.0074L21.437 27.3482L14 23.0815L32.4593 22.9333Z" fill="#8F00FF"/>
<path d="M59.748 49.6889C59.8666 52.5926 60.9036 55.3185 62.6221 57.2741C64.3406 59.2296 66.5925 60.237 68.874 60.0889C71.1555 60.237 73.4073 59.2296 75.1258 57.2741C76.8443 55.3185 77.8518 52.5926 77.9999 49.6889C77.9999 41.6 68.874 30.0444 68.874 30.0444C68.874 30.0444 59.748 41.6 59.748 49.6889Z" fill="#8F00FF"/>
<path d="M65.3481 31.8517L51.4518 28.7702L56.6074 25.8073L50.2074 14.7258C49.8518 14.1036 48.4592 11.7925 47.7185 11.0517L55.5111 1.83691C56.8741 1.83691 61.9407 13.6295 62.4148 14.4888L65.5555 20.5036L70.7111 17.5406L65.3481 31.8517Z" fill="#502F6A"/>
<path d="M40.8742 21.2148L30.2964 16.4148L43.2445 1.77778C45.1408 -0.503704 54.6223 -0.77037 55.7482 2.04444L55.8668 3.31852L40.8742 21.2148Z" fill="#8F00FF"/>
<path d="M27.8697 108.113C27.2594 108.113 26.7794 107.993 26.4297 107.753C26.0869 107.513 25.8469 107.187 25.7097 106.776C25.5726 106.358 25.504 105.878 25.504 105.336V102.363C25.504 101.794 25.5726 101.301 25.7097 100.882C25.8469 100.464 26.0869 100.142 26.4297 99.9154C26.7794 99.6891 27.2594 99.576 27.8697 99.576C28.4457 99.576 28.8949 99.6754 29.2171 99.8743C29.5463 100.066 29.7794 100.344 29.9166 100.707C30.0537 101.071 30.1223 101.493 30.1223 101.973V102.672H28.6617V101.952C28.6617 101.719 28.648 101.506 28.6206 101.314C28.6 101.122 28.5349 100.971 28.4251 100.862C28.3223 100.745 28.1406 100.687 27.88 100.687C27.6194 100.687 27.4274 100.749 27.304 100.872C27.1874 100.989 27.112 101.15 27.0777 101.355C27.0434 101.554 27.0263 101.781 27.0263 102.034V105.655C27.0263 105.957 27.0503 106.207 27.0983 106.406C27.1463 106.598 27.232 106.745 27.3554 106.848C27.4857 106.944 27.6606 106.992 27.88 106.992C28.1337 106.992 28.312 106.934 28.4149 106.817C28.5246 106.694 28.5931 106.533 28.6206 106.334C28.648 106.135 28.6617 105.912 28.6617 105.665V104.914H30.1223V105.583C30.1223 106.077 30.0571 106.515 29.9269 106.899C29.7966 107.277 29.5669 107.575 29.2377 107.794C28.9154 108.007 28.4594 108.113 27.8697 108.113ZM31.1821 108V99.6686H32.7044V106.951H34.7204V108H31.1821ZM35.5525 108V99.6686H37.0542V108H35.5525ZM38.3439 108V99.6686H41.8411V100.738H39.8662V103.135H41.4194V104.194H39.8662V106.951H41.8617V108H38.3439ZM42.7435 108V99.6686H43.8029L45.8292 104.421V99.6686H47.0841V108H46.0761L44.0395 103.022V108H42.7435ZM49.1816 108V100.79H47.8547V99.6686H52.0101V100.79H50.7038V108H49.1816ZM52.7681 108V99.6686H56.2652V100.738H54.2903V103.135H55.8435V104.194H54.2903V106.951H56.2858V108H52.7681ZM59.2659 108.113C58.7653 108.113 58.347 108.017 58.011 107.825C57.675 107.626 57.4213 107.338 57.2499 106.961C57.0785 106.584 56.9825 106.121 56.9619 105.573L58.2682 105.315C58.2819 105.638 58.3196 105.922 58.3813 106.169C58.4499 106.416 58.5493 106.608 58.6796 106.745C58.8167 106.875 58.995 106.941 59.2145 106.941C59.4613 106.941 59.6362 106.869 59.739 106.725C59.8419 106.574 59.8933 106.385 59.8933 106.159C59.8933 105.795 59.811 105.497 59.6465 105.264C59.4819 105.031 59.2625 104.798 58.9882 104.565L57.939 103.639C57.6442 103.385 57.4076 103.104 57.2293 102.795C57.0579 102.48 56.9722 102.093 56.9722 101.633C56.9722 100.975 57.1642 100.467 57.5482 100.111C57.9322 99.7543 58.4567 99.576 59.1219 99.576C59.5127 99.576 59.8385 99.6377 60.099 99.7611C60.3596 99.8777 60.5653 100.042 60.7162 100.255C60.8739 100.467 60.9905 100.711 61.0659 100.985C61.1413 101.253 61.1893 101.537 61.2099 101.839L59.9139 102.065C59.9002 101.805 59.8693 101.571 59.8213 101.366C59.7802 101.16 59.7013 100.999 59.5847 100.882C59.475 100.766 59.3105 100.707 59.091 100.707C58.8647 100.707 58.6899 100.783 58.5665 100.934C58.4499 101.078 58.3916 101.259 58.3916 101.479C58.3916 101.76 58.4499 101.993 58.5665 102.178C58.683 102.357 58.851 102.542 59.0705 102.734L60.1093 103.649C60.4522 103.937 60.7436 104.277 60.9836 104.667C61.2305 105.051 61.3539 105.518 61.3539 106.066C61.3539 106.464 61.2647 106.817 61.0865 107.126C60.915 107.434 60.6716 107.678 60.3562 107.856C60.0476 108.027 59.6842 108.113 59.2659 108.113Z" fill="#8F00FF"/>
</svg>
