<svg width="96" height="111" viewBox="0 0 96 111" fill="none" xmlns="http://www.w3.org/2000/svg">
<path d="M1.464 91V71.56H5.016V88.552H9.72V91H1.464ZM11.4456 91V77.128H14.7096V91H11.4456ZM11.4456 74.92V72.208H14.7096V74.92H11.4456ZM22.9427 95.56V89.968C22.5747 90.352 22.1827 90.656 21.7667 90.88C21.3507 91.104 20.9027 91.216 20.4227 91.216C19.3187 91.216 18.4867 90.824 17.9267 90.04C17.3667 89.256 17.0867 88 17.0867 86.272V82.024C17.0867 81.064 17.1907 80.2 17.3987 79.432C17.6067 78.664 17.9507 78.056 18.4307 77.608C18.9267 77.144 19.5827 76.912 20.3987 76.912C20.8947 76.912 21.3507 77.016 21.7667 77.224C22.1987 77.432 22.5907 77.704 22.9427 78.04V77.128H26.2067V95.56H22.9427ZM21.6467 88.96C21.8227 88.96 22.0227 88.92 22.2467 88.84C22.4867 88.76 22.7187 88.648 22.9427 88.504V79.624C22.7507 79.48 22.5427 79.368 22.3187 79.288C22.0947 79.192 21.8627 79.144 21.6227 79.144C21.1427 79.144 20.8067 79.36 20.6147 79.792C20.4387 80.208 20.3507 80.72 20.3507 81.328V86.512C20.3507 86.976 20.3827 87.392 20.4467 87.76C20.5267 88.128 20.6547 88.424 20.8307 88.648C21.0227 88.856 21.2947 88.96 21.6467 88.96ZM30.9019 91.216C30.3579 91.216 29.9099 91.08 29.5579 90.808C29.2059 90.52 28.9499 90.144 28.7899 89.68C28.6299 89.2 28.5499 88.696 28.5499 88.168V77.128H31.8139V87.568C31.8139 87.984 31.8779 88.312 32.0059 88.552C32.1499 88.776 32.4059 88.888 32.7739 88.888C33.0139 88.888 33.2539 88.824 33.4939 88.696C33.7499 88.568 33.9979 88.416 34.2379 88.24V77.128H37.5019V91H34.2379V89.68C33.7739 90.128 33.2619 90.496 32.7019 90.784C32.1419 91.072 31.5419 91.216 30.9019 91.216ZM40.1096 91V77.128H43.3736V91H40.1096ZM40.1096 74.92V72.208H43.3736V74.92H40.1096Z" fill="#8F00FF"/>
<path d="M51.4148 91.264C49.9908 91.264 48.8708 90.984 48.0548 90.424C47.2548 89.864 46.6948 89.104 46.3748 88.144C46.0548 87.168 45.8948 86.048 45.8948 84.784V77.848C45.8948 76.52 46.0548 75.368 46.3748 74.392C46.6948 73.416 47.2548 72.664 48.0548 72.136C48.8708 71.608 49.9908 71.344 51.4148 71.344C52.7588 71.344 53.8068 71.576 54.5588 72.04C55.3268 72.488 55.8708 73.136 56.1908 73.984C56.5108 74.832 56.6708 75.816 56.6708 76.936V78.568H53.2628V76.888C53.2628 76.344 53.2308 75.848 53.1668 75.4C53.1188 74.952 52.9668 74.6 52.7108 74.344C52.4708 74.072 52.0468 73.936 51.4388 73.936C50.8308 73.936 50.3828 74.08 50.0948 74.368C49.8228 74.64 49.6468 75.016 49.5668 75.496C49.4868 75.96 49.4468 76.488 49.4468 77.08V85.528C49.4468 86.232 49.5028 86.816 49.6148 87.28C49.7268 87.728 49.9268 88.072 50.2148 88.312C50.5188 88.536 50.9268 88.648 51.4388 88.648C52.0308 88.648 52.4468 88.512 52.6868 88.24C52.9428 87.952 53.1028 87.576 53.1668 87.112C53.2308 86.648 53.2628 86.128 53.2628 85.552V83.8H56.6708V85.36C56.6708 86.512 56.5188 87.536 56.2148 88.432C55.9108 89.312 55.3748 90.008 54.6068 90.52C53.8548 91.016 52.7908 91.264 51.4148 91.264ZM59.0237 94.768V92.416C59.5837 92.416 60.0397 92.384 60.3917 92.32C60.7437 92.256 60.9997 92.144 61.1597 91.984C61.3197 91.824 61.3997 91.6 61.3997 91.312C61.3997 91.104 61.3437 90.776 61.2317 90.328C61.1357 89.88 61.0237 89.392 60.8957 88.864L57.8477 77.128H61.0157L62.8157 86.272L64.3757 77.128H67.5197L64.2797 91.552C64.1037 92.368 63.8077 93.008 63.3917 93.472C62.9757 93.936 62.4557 94.264 61.8317 94.456C61.2077 94.664 60.4797 94.768 59.6477 94.768H59.0237ZM73.2053 91.216C72.1333 91.216 71.2693 91.016 70.6133 90.616C69.9733 90.2 69.5013 89.616 69.1973 88.864C68.9093 88.096 68.7653 87.192 68.7653 86.152V81.976C68.7653 80.904 68.9093 79.992 69.1973 79.24C69.5013 78.488 69.9813 77.912 70.6373 77.512C71.2933 77.112 72.1493 76.912 73.2053 76.912C74.1973 76.912 75.0053 77.072 75.6293 77.392C76.2693 77.696 76.7333 78.168 77.0213 78.808C77.3093 79.432 77.4533 80.224 77.4533 81.184V82.336H74.3813V81.112C74.3813 80.632 74.3413 80.256 74.2613 79.984C74.1973 79.696 74.0773 79.496 73.9013 79.384C73.7253 79.256 73.4933 79.192 73.2053 79.192C72.9173 79.192 72.6853 79.272 72.5093 79.432C72.3333 79.576 72.2053 79.816 72.1253 80.152C72.0613 80.488 72.0293 80.952 72.0293 81.544V86.632C72.0293 87.528 72.1253 88.136 72.3173 88.456C72.5093 88.76 72.8133 88.912 73.2293 88.912C73.5493 88.912 73.7893 88.84 73.9492 88.696C74.1253 88.552 74.2373 88.344 74.2853 88.072C74.3493 87.784 74.3813 87.44 74.3813 87.04V85.552H77.4533V86.872C77.4533 87.8 77.3013 88.592 76.9973 89.248C76.7093 89.904 76.2453 90.4 75.6053 90.736C74.9813 91.056 74.1813 91.216 73.2053 91.216ZM79.8156 91V71.56H83.0556V91H79.8156ZM89.8464 91.216C88.8064 91.216 87.9584 91.024 87.3024 90.64C86.6464 90.24 86.1584 89.664 85.8384 88.912C85.5344 88.144 85.3824 87.224 85.3824 86.152V81.976C85.3824 80.872 85.5344 79.944 85.8384 79.192C86.1584 78.44 86.6464 77.872 87.3024 77.488C87.9744 77.104 88.8224 76.912 89.8464 76.912C90.9504 76.912 91.8064 77.12 92.4144 77.536C93.0384 77.952 93.4784 78.56 93.7344 79.36C94.0064 80.144 94.1424 81.104 94.1424 82.24V84.208H88.6224V86.944C88.6224 87.392 88.6624 87.76 88.7424 88.048C88.8384 88.336 88.9824 88.544 89.1744 88.672C89.3664 88.8 89.5984 88.864 89.8704 88.864C90.1584 88.864 90.3904 88.8 90.5664 88.672C90.7424 88.528 90.8704 88.328 90.9504 88.072C91.0304 87.8 91.0704 87.464 91.0704 87.064V85.912H94.1184V86.848C94.1184 88.256 93.7664 89.336 93.0624 90.088C92.3584 90.84 91.2864 91.216 89.8464 91.216ZM88.6224 82.6H91.0704V81.28C91.0704 80.8 91.0304 80.416 90.9504 80.128C90.8704 79.824 90.7424 79.608 90.5664 79.48C90.3904 79.336 90.1424 79.264 89.8224 79.264C89.5344 79.264 89.3024 79.336 89.1264 79.48C88.9504 79.624 88.8224 79.864 88.7424 80.2C88.6624 80.536 88.6224 81.016 88.6224 81.64V82.6Z" fill="#502F6A"/>
<path d="M47.0075 50.2222L49.8223 60.1185L29.4963 59.4963C25.2297 59.4963 19.3037 56.5334 21.4371 52.6519L26.4149 48.8889L47.0075 50.2222Z" fill="#502F6A"/>
<path d="M32.4593 22.9333L41.6741 38.9037L31.6 33.8667L28.1333 50.8148C27.6 51.7037 27.837 58.1037 27.4815 59.4963C25.763 58.2815 29.8815 60.8296 22.6815 57.363C19.0963 55.3185 18.8 53.1556 18.2074 50.8445C17.8222 49.3926 17.1407 47.2889 17.763 42.2222C17.9407 39.8815 18.2963 37.6296 18.6519 37.0074L21.437 27.3482L14 23.0815L32.4593 22.9333Z" fill="#8F00FF"/>
<path d="M59.748 49.6889C59.8666 52.5926 60.9036 55.3185 62.6221 57.2741C64.3406 59.2296 66.5925 60.237 68.874 60.0889C71.1555 60.237 73.4073 59.2296 75.1258 57.2741C76.8443 55.3185 77.8518 52.5926 77.9999 49.6889C77.9999 41.6 68.874 30.0444 68.874 30.0444C68.874 30.0444 59.748 41.6 59.748 49.6889Z" fill="#8F00FF"/>
<path d="M65.3481 31.8517L51.4518 28.7702L56.6074 25.8073L50.2074 14.7258C49.8518 14.1036 48.4592 11.7925 47.7185 11.0517L55.5111 1.83691C56.8741 1.83691 61.9407 13.6295 62.4148 14.4888L65.5555 20.5036L70.7111 17.5406L65.3481 31.8517Z" fill="#502F6A"/>
<path d="M40.8742 21.2148L30.2964 16.4148L43.2445 1.77778C45.1408 -0.503704 54.6223 -0.77037 55.7482 2.04444L55.8668 3.31852L40.8742 21.2148Z" fill="#8F00FF"/>
<path d="M31.8697 110.113C31.2594 110.113 30.7794 109.993 30.4297 109.753C30.0869 109.513 29.8469 109.187 29.7097 108.776C29.5726 108.358 29.504 107.878 29.504 107.336V104.363C29.504 103.794 29.5726 103.301 29.7097 102.882C29.8469 102.464 30.0869 102.142 30.4297 101.915C30.7794 101.689 31.2594 101.576 31.8697 101.576C32.4457 101.576 32.8949 101.675 33.2171 101.874C33.5463 102.066 33.7794 102.344 33.9166 102.707C34.0537 103.071 34.1223 103.493 34.1223 103.973V104.672H32.6617V103.952C32.6617 103.719 32.648 103.506 32.6206 103.314C32.6 103.122 32.5349 102.971 32.4251 102.862C32.3223 102.745 32.1406 102.687 31.88 102.687C31.6194 102.687 31.4274 102.749 31.304 102.872C31.1874 102.989 31.112 103.15 31.0777 103.355C31.0434 103.554 31.0263 103.781 31.0263 104.034V107.655C31.0263 107.957 31.0503 108.207 31.0983 108.406C31.1463 108.598 31.232 108.745 31.3554 108.848C31.4857 108.944 31.6606 108.992 31.88 108.992C32.1337 108.992 32.312 108.934 32.4149 108.817C32.5246 108.694 32.5931 108.533 32.6206 108.334C32.648 108.135 32.6617 107.912 32.6617 107.665V106.914H34.1223V107.583C34.1223 108.077 34.0571 108.515 33.9269 108.899C33.7966 109.277 33.5669 109.575 33.2377 109.794C32.9154 110.007 32.4594 110.113 31.8697 110.113ZM35.1821 110V101.669H36.7044V108.951H38.7204V110H35.1821ZM39.5525 110V101.669H41.0542V110H39.5525ZM42.3439 110V101.669H45.8411V102.738H43.8662V105.135H45.4194V106.194H43.8662V108.951H45.8617V110H42.3439ZM46.7435 110V101.669H47.8029L49.8292 106.421V101.669H51.0841V110H50.0761L48.0395 105.022V110H46.7435ZM53.1816 110V102.79H51.8547V101.669H56.0101V102.79H54.7038V110H53.1816ZM56.7681 110V101.669H60.2652V102.738H58.2903V105.135H59.8435V106.194H58.2903V108.951H60.2858V110H56.7681ZM63.2659 110.113C62.7653 110.113 62.347 110.017 62.011 109.825C61.675 109.626 61.4213 109.338 61.2499 108.961C61.0785 108.584 60.9825 108.121 60.9619 107.573L62.2682 107.315C62.2819 107.638 62.3196 107.922 62.3813 108.169C62.4499 108.416 62.5493 108.608 62.6796 108.745C62.8167 108.875 62.995 108.941 63.2145 108.941C63.4613 108.941 63.6362 108.869 63.739 108.725C63.8419 108.574 63.8933 108.385 63.8933 108.159C63.8933 107.795 63.811 107.497 63.6465 107.264C63.4819 107.031 63.2625 106.798 62.9882 106.565L61.939 105.639C61.6442 105.385 61.4076 105.104 61.2293 104.795C61.0579 104.48 60.9722 104.093 60.9722 103.633C60.9722 102.975 61.1642 102.467 61.5482 102.111C61.9322 101.754 62.4567 101.576 63.1219 101.576C63.5127 101.576 63.8385 101.638 64.099 101.761C64.3596 101.878 64.5653 102.042 64.7162 102.255C64.8739 102.467 64.9905 102.711 65.0659 102.985C65.1413 103.253 65.1893 103.537 65.2099 103.839L63.9139 104.065C63.9002 103.805 63.8693 103.571 63.8213 103.366C63.7802 103.16 63.7013 102.999 63.5847 102.882C63.475 102.766 63.3105 102.707 63.091 102.707C62.8647 102.707 62.6899 102.783 62.5665 102.934C62.4499 103.078 62.3916 103.259 62.3916 103.479C62.3916 103.76 62.4499 103.993 62.5665 104.178C62.683 104.357 62.851 104.542 63.0705 104.734L64.1093 105.649C64.4522 105.937 64.7436 106.277 64.9836 106.667C65.2305 107.051 65.3539 107.518 65.3539 108.066C65.3539 108.464 65.2647 108.817 65.0865 109.126C64.915 109.434 64.6716 109.678 64.3562 109.856C64.0476 110.027 63.6842 110.113 63.2659 110.113Z" fill="#8F00FF"/>
</svg>
