<svg width="10" height="10" viewBox="0 0 10 10" fill="none" xmlns="http://www.w3.org/2000/svg">
<path d="M5.15737 8.35386L5.59718 10L2.42126 9.8965C1.75459 9.8965 0.828665 9.40364 1.162 8.758L1.93978 8.13208L5.15737 8.35386Z" fill="#502F6A"/>
<path d="M2.88426 3.8147L4.32407 6.47118L2.75 5.63333L2.20833 8.45245C2.125 8.60031 2.16204 9.66487 2.10648 9.89651C1.83796 9.69444 2.48148 10.1183 1.35648 9.54166C0.796296 9.20159 0.75 8.8418 0.657407 8.45738C0.597222 8.21588 0.490741 7.86595 0.587963 7.02317C0.615741 6.63382 0.671296 6.25925 0.726852 6.15575L1.16204 4.54905L0 3.83934L2.88426 3.8147Z" fill="#8F00FF"/>
<path d="M7.14819 8.26518C7.16671 8.74818 7.32875 9.2016 7.59727 9.52688C7.86579 9.85217 8.21764 10.0197 8.57412 9.99509C8.9306 10.0197 9.28245 9.85217 9.55097 9.52688C9.81949 9.2016 9.9769 8.74818 10 8.26518C10 6.91969 8.57412 4.99756 8.57412 4.99756C8.57412 4.99756 7.14819 6.91969 7.14819 8.26518Z" fill="#8F00FF"/>
<path d="M8.02318 5.29815L5.85189 4.78558L6.65744 4.29273L5.65744 2.44946C5.60189 2.34596 5.3843 1.96153 5.26855 1.83832L6.48615 0.305542C6.69911 0.305542 7.49078 2.2671 7.56485 2.41003L8.05559 3.41052L8.86115 2.91767L8.02318 5.29815Z" fill="#502F6A"/>
<path d="M4.19916 3.52883L2.54639 2.73041L4.56953 0.295712C4.86583 -0.0837852 6.34731 -0.128142 6.52324 0.340069L6.54176 0.551996L4.19916 3.52883Z" fill="#8F00FF"/>
</svg>
