<svg width="96" height="47" viewBox="0 0 96 47" fill="none" xmlns="http://www.w3.org/2000/svg">
<path d="M1.464 29V9.56H5.016V26.552H9.72V29H1.464ZM11.4456 29V15.128H14.7096V29H11.4456ZM11.4456 12.92V10.208H14.7096V12.92H11.4456ZM22.9427 33.56V27.968C22.5747 28.352 22.1827 28.656 21.7667 28.88C21.3507 29.104 20.9027 29.216 20.4227 29.216C19.3187 29.216 18.4867 28.824 17.9267 28.04C17.3667 27.256 17.0867 26 17.0867 24.272V20.024C17.0867 19.064 17.1907 18.2 17.3987 17.432C17.6067 16.664 17.9507 16.056 18.4307 15.608C18.9267 15.144 19.5827 14.912 20.3987 14.912C20.8947 14.912 21.3507 15.016 21.7667 15.224C22.1987 15.432 22.5907 15.704 22.9427 16.04V15.128H26.2067V33.56H22.9427ZM21.6467 26.96C21.8227 26.96 22.0227 26.92 22.2467 26.84C22.4867 26.76 22.7187 26.648 22.9427 26.504V17.624C22.7507 17.48 22.5427 17.368 22.3187 17.288C22.0947 17.192 21.8627 17.144 21.6227 17.144C21.1427 17.144 20.8067 17.36 20.6147 17.792C20.4387 18.208 20.3507 18.72 20.3507 19.328V24.512C20.3507 24.976 20.3827 25.392 20.4467 25.76C20.5267 26.128 20.6547 26.424 20.8307 26.648C21.0227 26.856 21.2947 26.96 21.6467 26.96ZM30.9019 29.216C30.3579 29.216 29.9099 29.08 29.5579 28.808C29.2059 28.52 28.9499 28.144 28.7899 27.68C28.6299 27.2 28.5499 26.696 28.5499 26.168V15.128H31.8139V25.568C31.8139 25.984 31.8779 26.312 32.0059 26.552C32.1499 26.776 32.4059 26.888 32.7739 26.888C33.0139 26.888 33.2539 26.824 33.4939 26.696C33.7499 26.568 33.9979 26.416 34.2379 26.24V15.128H37.5019V29H34.2379V27.68C33.7739 28.128 33.2619 28.496 32.7019 28.784C32.1419 29.072 31.5419 29.216 30.9019 29.216ZM40.1096 29V15.128H43.3736V29H40.1096ZM40.1096 12.92V10.208H43.3736V12.92H40.1096Z" fill="#8F00FF"/>
<path d="M51.4148 29.264C49.9908 29.264 48.8708 28.984 48.0548 28.424C47.2548 27.864 46.6948 27.104 46.3748 26.144C46.0548 25.168 45.8948 24.048 45.8948 22.784V15.848C45.8948 14.52 46.0548 13.368 46.3748 12.392C46.6948 11.416 47.2548 10.664 48.0548 10.136C48.8708 9.608 49.9908 9.344 51.4148 9.344C52.7588 9.344 53.8068 9.576 54.5588 10.04C55.3268 10.488 55.8708 11.136 56.1908 11.984C56.5108 12.832 56.6708 13.816 56.6708 14.936V16.568H53.2628V14.888C53.2628 14.344 53.2308 13.848 53.1668 13.4C53.1188 12.952 52.9668 12.6 52.7108 12.344C52.4708 12.072 52.0468 11.936 51.4388 11.936C50.8308 11.936 50.3828 12.08 50.0948 12.368C49.8228 12.64 49.6468 13.016 49.5668 13.496C49.4868 13.96 49.4468 14.488 49.4468 15.08V23.528C49.4468 24.232 49.5028 24.816 49.6148 25.28C49.7268 25.728 49.9268 26.072 50.2148 26.312C50.5188 26.536 50.9268 26.648 51.4388 26.648C52.0308 26.648 52.4468 26.512 52.6868 26.24C52.9428 25.952 53.1028 25.576 53.1668 25.112C53.2308 24.648 53.2628 24.128 53.2628 23.552V21.8H56.6708V23.36C56.6708 24.512 56.5188 25.536 56.2148 26.432C55.9108 27.312 55.3748 28.008 54.6068 28.52C53.8548 29.016 52.7908 29.264 51.4148 29.264ZM59.0237 32.768V30.416C59.5837 30.416 60.0397 30.384 60.3917 30.32C60.7437 30.256 60.9997 30.144 61.1597 29.984C61.3197 29.824 61.3997 29.6 61.3997 29.312C61.3997 29.104 61.3437 28.776 61.2317 28.328C61.1357 27.88 61.0237 27.392 60.8957 26.864L57.8477 15.128H61.0157L62.8157 24.272L64.3757 15.128H67.5197L64.2797 29.552C64.1037 30.368 63.8077 31.008 63.3917 31.472C62.9757 31.936 62.4557 32.264 61.8317 32.456C61.2077 32.664 60.4797 32.768 59.6477 32.768H59.0237ZM73.2053 29.216C72.1333 29.216 71.2693 29.016 70.6133 28.616C69.9733 28.2 69.5013 27.616 69.1973 26.864C68.9093 26.096 68.7653 25.192 68.7653 24.152V19.976C68.7653 18.904 68.9093 17.992 69.1973 17.24C69.5013 16.488 69.9813 15.912 70.6373 15.512C71.2933 15.112 72.1493 14.912 73.2053 14.912C74.1973 14.912 75.0053 15.072 75.6293 15.392C76.2693 15.696 76.7333 16.168 77.0213 16.808C77.3093 17.432 77.4533 18.224 77.4533 19.184V20.336H74.3813V19.112C74.3813 18.632 74.3413 18.256 74.2613 17.984C74.1973 17.696 74.0773 17.496 73.9013 17.384C73.7253 17.256 73.4933 17.192 73.2053 17.192C72.9173 17.192 72.6853 17.272 72.5093 17.432C72.3333 17.576 72.2053 17.816 72.1253 18.152C72.0613 18.488 72.0293 18.952 72.0293 19.544V24.632C72.0293 25.528 72.1253 26.136 72.3173 26.456C72.5093 26.76 72.8133 26.912 73.2293 26.912C73.5493 26.912 73.7893 26.84 73.9492 26.696C74.1253 26.552 74.2373 26.344 74.2853 26.072C74.3493 25.784 74.3813 25.44 74.3813 25.04V23.552H77.4533V24.872C77.4533 25.8 77.3013 26.592 76.9973 27.248C76.7093 27.904 76.2453 28.4 75.6053 28.736C74.9813 29.056 74.1813 29.216 73.2053 29.216ZM79.8156 29V9.56H83.0556V29H79.8156ZM89.8464 29.216C88.8064 29.216 87.9584 29.024 87.3024 28.64C86.6464 28.24 86.1584 27.664 85.8384 26.912C85.5344 26.144 85.3824 25.224 85.3824 24.152V19.976C85.3824 18.872 85.5344 17.944 85.8384 17.192C86.1584 16.44 86.6464 15.872 87.3024 15.488C87.9744 15.104 88.8224 14.912 89.8464 14.912C90.9504 14.912 91.8064 15.12 92.4144 15.536C93.0384 15.952 93.4784 16.56 93.7344 17.36C94.0064 18.144 94.1424 19.104 94.1424 20.24V22.208H88.6224V24.944C88.6224 25.392 88.6624 25.76 88.7424 26.048C88.8384 26.336 88.9824 26.544 89.1744 26.672C89.3664 26.8 89.5984 26.864 89.8704 26.864C90.1584 26.864 90.3904 26.8 90.5664 26.672C90.7424 26.528 90.8704 26.328 90.9504 26.072C91.0304 25.8 91.0704 25.464 91.0704 25.064V23.912H94.1184V24.848C94.1184 26.256 93.7664 27.336 93.0624 28.088C92.3584 28.84 91.2864 29.216 89.8464 29.216ZM88.6224 20.6H91.0704V19.28C91.0704 18.8 91.0304 18.416 90.9504 18.128C90.8704 17.824 90.7424 17.608 90.5664 17.48C90.3904 17.336 90.1424 17.264 89.8224 17.264C89.5344 17.264 89.3024 17.336 89.1264 17.48C88.9504 17.624 88.8224 17.864 88.7424 18.2C88.6624 18.536 88.6224 19.016 88.6224 19.64V20.6Z" fill="#502F6A"/>
<path d="M29.8697 46.1131C29.2594 46.1131 28.7794 45.9931 28.4297 45.7531C28.0869 45.5131 27.8469 45.1874 27.7097 44.776C27.5726 44.3577 27.504 43.8777 27.504 43.336V40.3634C27.504 39.7943 27.5726 39.3006 27.7097 38.8823C27.8469 38.464 28.0869 38.1417 28.4297 37.9154C28.7794 37.6891 29.2594 37.576 29.8697 37.576C30.4457 37.576 30.8949 37.6754 31.2171 37.8743C31.5463 38.0663 31.7794 38.344 31.9166 38.7074C32.0537 39.0709 32.1223 39.4926 32.1223 39.9726V40.672H30.6617V39.952C30.6617 39.7189 30.648 39.5063 30.6206 39.3143C30.6 39.1223 30.5349 38.9714 30.4251 38.8617C30.3223 38.7451 30.1406 38.6869 29.88 38.6869C29.6194 38.6869 29.4274 38.7486 29.304 38.872C29.1874 38.9886 29.112 39.1497 29.0777 39.3554C29.0434 39.5543 29.0263 39.7806 29.0263 40.0343V43.6549C29.0263 43.9566 29.0503 44.2069 29.0983 44.4057C29.1463 44.5977 29.232 44.7451 29.3554 44.848C29.4857 44.944 29.6606 44.992 29.88 44.992C30.1337 44.992 30.312 44.9337 30.4149 44.8171C30.5246 44.6937 30.5931 44.5326 30.6206 44.3337C30.648 44.1349 30.6617 43.912 30.6617 43.6651V42.9143H32.1223V43.5829C32.1223 44.0766 32.0571 44.5154 31.9269 44.8994C31.7966 45.2766 31.5669 45.5749 31.2377 45.7943C30.9154 46.0069 30.4594 46.1131 29.8697 46.1131ZM33.1821 46V37.6686H34.7044V44.9509H36.7204V46H33.1821ZM37.5525 46V37.6686H39.0542V46H37.5525ZM40.3439 46V37.6686H43.8411V38.7383H41.8662V41.1349H43.4194V42.1943H41.8662V44.9509H43.8617V46H40.3439ZM44.7435 46V37.6686H45.8029L47.8292 42.4206V37.6686H49.0841V46H48.0761L46.0395 41.0217V46H44.7435ZM51.1816 46V38.7897H49.8547V37.6686H54.0101V38.7897H52.7038V46H51.1816ZM54.7681 46V37.6686H58.2652V38.7383H56.2903V41.1349H57.8435V42.1943H56.2903V44.9509H58.2858V46H54.7681ZM61.2659 46.1131C60.7653 46.1131 60.347 46.0171 60.011 45.8251C59.675 45.6263 59.4213 45.3383 59.2499 44.9611C59.0785 44.584 58.9825 44.1211 58.9619 43.5726L60.2682 43.3154C60.2819 43.6377 60.3196 43.9223 60.3813 44.1691C60.4499 44.416 60.5493 44.608 60.6796 44.7451C60.8167 44.8754 60.995 44.9406 61.2145 44.9406C61.4613 44.9406 61.6362 44.8686 61.739 44.7246C61.8419 44.5737 61.8933 44.3851 61.8933 44.1589C61.8933 43.7954 61.811 43.4971 61.6465 43.264C61.4819 43.0309 61.2625 42.7977 60.9882 42.5646L59.939 41.6389C59.6442 41.3851 59.4076 41.104 59.2293 40.7954C59.0579 40.48 58.9722 40.0926 58.9722 39.6331C58.9722 38.9749 59.1642 38.4674 59.5482 38.1109C59.9322 37.7543 60.4567 37.576 61.1219 37.576C61.5127 37.576 61.8385 37.6377 62.099 37.7611C62.3596 37.8777 62.5653 38.0423 62.7162 38.2549C62.8739 38.4674 62.9905 38.7109 63.0659 38.9851C63.1413 39.2526 63.1893 39.5371 63.2099 39.8389L61.9139 40.0651C61.9002 39.8046 61.8693 39.5714 61.8213 39.3657C61.7802 39.16 61.7013 38.9989 61.5847 38.8823C61.475 38.7657 61.3105 38.7074 61.091 38.7074C60.8647 38.7074 60.6899 38.7829 60.5665 38.9337C60.4499 39.0777 60.3916 39.2594 60.3916 39.4789C60.3916 39.76 60.4499 39.9931 60.5665 40.1783C60.683 40.3566 60.851 40.5417 61.0705 40.7337L62.1093 41.6491C62.4522 41.9371 62.7436 42.2766 62.9836 42.6674C63.2305 43.0514 63.3539 43.5177 63.3539 44.0663C63.3539 44.464 63.2647 44.8171 63.0865 45.1257C62.915 45.4343 62.6716 45.6777 62.3562 45.856C62.0476 46.0274 61.6842 46.1131 61.2659 46.1131Z" fill="#8F00FF"/>
</svg>
