<svg width="27" height="24" viewBox="0 0 27 24" fill="none" xmlns="http://www.w3.org/2000/svg">
<path d="M15.15 8.5752H7.97705" stroke="#5F5F5F" stroke-width="1.79323" stroke-linecap="round" stroke-linejoin="round"/>
<path d="M25.9101 10.9303V13.3931C25.9101 14.0506 25.3841 14.5885 24.7146 14.6124H22.3714C21.0802 14.6124 19.8968 13.6679 19.7892 12.3768C19.7175 11.6237 20.0043 10.9183 20.5064 10.4282C20.9487 9.97389 21.5586 9.71094 22.228 9.71094H24.7146C25.3841 9.73485 25.9101 10.2728 25.9101 10.9303Z" stroke="#292D32" stroke-width="1.79323" stroke-linecap="round" stroke-linejoin="round"/>
<path d="M20.5062 10.4282C20.0041 10.9184 19.7172 11.6237 19.7889 12.3769C19.8965 13.668 21.08 14.6124 22.3711 14.6124H24.7143V16.3459C24.7143 19.9323 22.3233 22.3233 18.7369 22.3233H7.97745C4.39098 22.3233 2 19.9323 2 16.3459V7.97745C2 4.72572 3.9606 2.45429 7.0091 2.07173C7.31993 2.02391 7.64271 2 7.97745 2H18.7369C19.0477 2 19.3466 2.01194 19.6335 2.05976C22.7178 2.41841 24.7143 4.70181 24.7143 7.97745V9.71092H22.2277C21.5582 9.71092 20.9485 9.97392 20.5062 10.4282Z" stroke="#5F5F5F" stroke-width="3" stroke-linecap="round" stroke-linejoin="round"/>
</svg>
